<svg xmlns="http://www.w3.org/2000/svg" xmlns:xlink="http://www.w3.org/1999/xlink" width="411" height="843" viewBox="0 0 411 843"><defs><clipPath id="b"><rect width="411" height="843"/></clipPath></defs><g id="a" clip-path="url(#b)"><rect width="411" height="843" fill="#fff"/><g opacity="0.45"><path d="M7.875,2.25A7.871,7.871,0,0,0,0,10.125v15.75a7.875,7.875,0,0,0,15.75,0V10.125A7.871,7.871,0,0,0,7.875,2.25ZM11.25,18H4.5V10.125a3.375,3.375,0,0,1,6.75,0Zm9.823-2.088a.578.578,0,0,0-.865.056A11.184,11.184,0,0,0,35.838,31.6a.572.572,0,0,0,.056-.865ZM37.23,14.576a11.21,11.21,0,0,0-14.513-1.118.572.572,0,0,0-.056.865L37.484,29.145a.578.578,0,0,0,.865-.056A11.2,11.2,0,0,0,37.23,14.576Z" transform="translate(154.657 247.75)" fill="#9282ff" opacity="0.52"/><path d="M7.875,2.25A7.871,7.871,0,0,0,0,10.125v15.75a7.875,7.875,0,0,0,15.75,0V10.125A7.871,7.871,0,0,0,7.875,2.25ZM11.25,18H4.5V10.125a3.375,3.375,0,0,1,6.75,0Zm9.823-2.088a.578.578,0,0,0-.865.056A11.184,11.184,0,0,0,35.838,31.6a.572.572,0,0,0,.056-.865ZM37.23,14.576a11.21,11.21,0,0,0-14.513-1.118.572.572,0,0,0-.056.865L37.484,29.145a.578.578,0,0,0,.865-.056A11.2,11.2,0,0,0,37.23,14.576Z" transform="translate(154.657 418.75)" fill="#9282ff" opacity="0.52"/><path d="M7.875,2.25A7.871,7.871,0,0,0,0,10.125v15.75a7.875,7.875,0,0,0,15.75,0V10.125A7.871,7.871,0,0,0,7.875,2.25ZM11.25,18H4.5V10.125a3.375,3.375,0,0,1,6.75,0Zm9.823-2.088a.578.578,0,0,0-.865.056A11.184,11.184,0,0,0,35.838,31.6a.572.572,0,0,0,.056-.865ZM37.23,14.576a11.21,11.21,0,0,0-14.513-1.118.572.572,0,0,0-.056.865L37.484,29.145a.578.578,0,0,0,.865-.056A11.2,11.2,0,0,0,37.23,14.576Z" transform="translate(293.682 743.915) rotate(161)" fill="#9282ff" opacity="0.52"/><path d="M14.168,12.291l3.916,3.923a.564.564,0,0,1,0,.795l-.795.795a.564.564,0,0,1-.795,0L12.579,13.88,9.394,17.065l3.923,3.923a.564.564,0,0,1,0,.795l-.795.795a.564.564,0,0,1-.795,0L7.8,18.647,5.948,20.5a5.618,5.618,0,0,0-1.617,4.6l.5,4.472L.162,34.242a.564.564,0,0,0,0,.795l.795.795a.564.564,0,0,0,.795,0L6.412,31.17l4.472.5a5.6,5.6,0,0,0,4.6-1.617l12.79-12.79L18.731,7.72l-4.563,4.57Zm21.67-6.56L30.27.162a.564.564,0,0,0-.795,0L28.68.956a.564.564,0,0,0,0,.795l1.99,1.99L27.485,6.926l-3.98-3.98-1.2-1.2a.564.564,0,0,0-.795,0L19.132,4.134a.564.564,0,0,0,0,.795l1.2,1.2,9.541,9.555,1.2,1.2a.564.564,0,0,0,.795,0l2.384-2.391a.564.564,0,0,0,0-.795L29.074,8.522l3.185-3.185,1.99,1.99a.564.564,0,0,0,.795,0l.795-.795a.573.573,0,0,0,0-.8Z" transform="translate(95.907 366.752)" fill="#9282ff" opacity="0.52"/><path d="M14.168,12.291l3.916,3.923a.564.564,0,0,1,0,.795l-.795.795a.564.564,0,0,1-.795,0L12.579,13.88,9.394,17.065l3.923,3.923a.564.564,0,0,1,0,.795l-.795.795a.564.564,0,0,1-.795,0L7.8,18.647,5.948,20.5a5.618,5.618,0,0,0-1.617,4.6l.5,4.472L.162,34.242a.564.564,0,0,0,0,.795l.795.795a.564.564,0,0,0,.795,0L6.412,31.17l4.472.5a5.6,5.6,0,0,0,4.6-1.617l12.79-12.79L18.731,7.72l-4.563,4.57Zm21.67-6.56L30.27.162a.564.564,0,0,0-.795,0L28.68.956a.564.564,0,0,0,0,.795l1.99,1.99L27.485,6.926l-3.98-3.98-1.2-1.2a.564.564,0,0,0-.795,0L19.132,4.134a.564.564,0,0,0,0,.795l1.2,1.2,9.541,9.555,1.2,1.2a.564.564,0,0,0,.795,0l2.384-2.391a.564.564,0,0,0,0-.795L29.074,8.522l3.185-3.185,1.99,1.99a.564.564,0,0,0,.795,0l.795-.795a.573.573,0,0,0,0-.8Z" transform="translate(340.242 348.754)" fill="#9282ff" opacity="0.52"/><path d="M14.168,12.291l3.916,3.923a.564.564,0,0,1,0,.795l-.795.795a.564.564,0,0,1-.795,0L12.579,13.88,9.394,17.065l3.923,3.923a.564.564,0,0,1,0,.795l-.795.795a.564.564,0,0,1-.795,0L7.8,18.647,5.948,20.5a5.618,5.618,0,0,0-1.617,4.6l.5,4.472L.162,34.242a.564.564,0,0,0,0,.795l.795.795a.564.564,0,0,0,.795,0L6.412,31.17l4.472.5a5.6,5.6,0,0,0,4.6-1.617l12.79-12.79L18.731,7.72l-4.563,4.57Zm21.67-6.56L30.27.162a.564.564,0,0,0-.795,0L28.68.956a.564.564,0,0,0,0,.795l1.99,1.99L27.485,6.926l-3.98-3.98-1.2-1.2a.564.564,0,0,0-.795,0L19.132,4.134a.564.564,0,0,0,0,.795l1.2,1.2,9.541,9.555,1.2,1.2a.564.564,0,0,0,.795,0l2.384-2.391a.564.564,0,0,0,0-.795L29.074,8.522l3.185-3.185,1.99,1.99a.564.564,0,0,0,.795,0l.795-.795a.573.573,0,0,0,0-.8Z" transform="translate(95.907 537.752)" fill="#9282ff" opacity="0.52"/><path d="M14.168,12.291l3.916,3.923a.564.564,0,0,1,0,.795l-.795.795a.564.564,0,0,1-.795,0L12.579,13.88,9.394,17.065l3.923,3.923a.564.564,0,0,1,0,.795l-.795.795a.564.564,0,0,1-.795,0L7.8,18.647,5.948,20.5a5.618,5.618,0,0,0-1.617,4.6l.5,4.472L.162,34.242a.564.564,0,0,0,0,.795l.795.795a.564.564,0,0,0,.795,0L6.412,31.17l4.472.5a5.6,5.6,0,0,0,4.6-1.617l12.79-12.79L18.731,7.72l-4.563,4.57Zm21.67-6.56L30.27.162a.564.564,0,0,0-.795,0L28.68.956a.564.564,0,0,0,0,.795l1.99,1.99L27.485,6.926l-3.98-3.98-1.2-1.2a.564.564,0,0,0-.795,0L19.132,4.134a.564.564,0,0,0,0,.795l1.2,1.2,9.541,9.555,1.2,1.2a.564.564,0,0,0,.795,0l2.384-2.391a.564.564,0,0,0,0-.795L29.074,8.522l3.185-3.185,1.99,1.99a.564.564,0,0,0,.795,0l.795-.795a.573.573,0,0,0,0-.8Z" transform="translate(310.488 612.27) rotate(161)" fill="#9282ff" opacity="0.52"/><path d="M42.109,17.2A5.23,5.23,0,0,0,45,12.518v-.537a5.231,5.231,0,0,0-10.192-1.654c-.54,1.619-.816,3.174-2.68,3.174H12.871c-1.925,0-2.22-1.8-2.68-3.174A5.23,5.23,0,0,0,0,11.981v.537A5.23,5.23,0,0,0,2.891,17.2a.9.9,0,0,1,0,1.609A5.23,5.23,0,0,0,0,23.482v.537a5.23,5.23,0,0,0,10.192,1.654c.54-1.619.816-3.174,2.68-3.174H32.128c1.925,0,2.22,1.8,2.68,3.174A5.23,5.23,0,0,0,45,24.019v-.537A5.23,5.23,0,0,0,42.108,18.8.9.9,0,0,1,42.109,17.2Z" transform="translate(86.909 294.75)" fill="#9282ff" opacity="0.52"/><path d="M42.109,17.2A5.23,5.23,0,0,0,45,12.518v-.537a5.231,5.231,0,0,0-10.192-1.654c-.54,1.619-.816,3.174-2.68,3.174H12.871c-1.925,0-2.22-1.8-2.68-3.174A5.23,5.23,0,0,0,0,11.981v.537A5.23,5.23,0,0,0,2.891,17.2a.9.9,0,0,1,0,1.609A5.23,5.23,0,0,0,0,23.482v.537a5.23,5.23,0,0,0,10.192,1.654c.54-1.619.816-3.174,2.68-3.174H32.128c1.925,0,2.22,1.8,2.68,3.174A5.23,5.23,0,0,0,45,24.019v-.537A5.23,5.23,0,0,0,42.108,18.8.9.9,0,0,1,42.109,17.2Z" transform="translate(86.909 465.75)" fill="#9282ff" opacity="0.52"/><path d="M42.109,17.2A5.23,5.23,0,0,0,45,12.518v-.537a5.231,5.231,0,0,0-10.192-1.654c-.54,1.619-.816,3.174-2.68,3.174H12.871c-1.925,0-2.22-1.8-2.68-3.174A5.23,5.23,0,0,0,0,11.981v.537A5.23,5.23,0,0,0,2.891,17.2a.9.9,0,0,1,0,1.609A5.23,5.23,0,0,0,0,23.482v.537a5.23,5.23,0,0,0,10.192,1.654c.54-1.619.816-3.174,2.68-3.174H32.128c1.925,0,2.22,1.8,2.68,3.174A5.23,5.23,0,0,0,45,24.019v-.537A5.23,5.23,0,0,0,42.108,18.8.9.9,0,0,1,42.109,17.2Z" transform="translate(342.438 677.419) rotate(161)" fill="#9282ff" opacity="0.52"/><g transform="translate(21.308 332.627)" opacity="0.52"><path d="M20.447,15.012a1.82,1.82,0,0,0-1.744-.795V14.2a9.356,9.356,0,0,0-1.589.2,4.518,4.518,0,0,0-1.385.5,19.027,19.027,0,0,1,.007,4.113,13.709,13.709,0,0,1-.555,2.988s.373.851,2.813,1.055c.274.021.534.035.773.035a5.228,5.228,0,0,0,2.559-.513,3.793,3.793,0,0,0,.3-1.554A12.444,12.444,0,0,0,20.447,15.012Z" fill="#9282ff"/><path d="M14.463,14.681C12.916,11.855,8.4,7.875,5.934,7.875,4.071,7.875,2.25,12.691,2.25,18S3.867,28.125,5.871,28.125c2.348,0,7.77-5.625,7.77-5.625a11.976,11.976,0,0,0,.7-2.362l.127-.731c.049-.33.091-.682.12-1.055q.032-.369.042-.7l.021-.689A10.97,10.97,0,0,0,14.463,14.681Z" fill="#9282ff"/><path d="M30.066,7.875c-2.559,0-6.778,3.973-8.318,6.806l-.056.1.134.239a7.741,7.741,0,0,1,.661,1.688l.2.823a13.834,13.834,0,0,1,.3,2.264l.014.633c0,.2-.007.4-.021.6a3.5,3.5,0,0,1-.323,1.554c.534.738,4.852,5.548,7.467,5.548,2,0,3.621-4.816,3.621-10.125S31.929,7.875,30.066,7.875Z" fill="#9282ff"/></g><g transform="translate(21.308 503.627)" opacity="0.52"><path d="M20.447,15.012a1.82,1.82,0,0,0-1.744-.795V14.2a9.356,9.356,0,0,0-1.589.2,4.518,4.518,0,0,0-1.385.5,19.027,19.027,0,0,1,.007,4.113,13.709,13.709,0,0,1-.555,2.988s.373.851,2.813,1.055c.274.021.534.035.773.035a5.228,5.228,0,0,0,2.559-.513,3.793,3.793,0,0,0,.3-1.554A12.444,12.444,0,0,0,20.447,15.012Z" fill="#9282ff"/><path d="M14.463,14.681C12.916,11.855,8.4,7.875,5.934,7.875,4.071,7.875,2.25,12.691,2.25,18S3.867,28.125,5.871,28.125c2.348,0,7.77-5.625,7.77-5.625a11.976,11.976,0,0,0,.7-2.362l.127-.731c.049-.33.091-.682.12-1.055q.032-.369.042-.7l.021-.689A10.97,10.97,0,0,0,14.463,14.681Z" fill="#9282ff"/><path d="M30.066,7.875c-2.559,0-6.778,3.973-8.318,6.806l-.056.1.134.239a7.741,7.741,0,0,1,.661,1.688l.2.823a13.834,13.834,0,0,1,.3,2.264l.014.633c0,.2-.007.4-.021.6a3.5,3.5,0,0,1-.323,1.554c.534.738,4.852,5.548,7.467,5.548,2,0,3.621-4.816,3.621-10.125S31.929,7.875,30.066,7.875Z" fill="#9282ff"/></g><g transform="translate(392.133 620.249) rotate(161)" opacity="0.52"><path d="M20.447,15.012a1.82,1.82,0,0,0-1.744-.795V14.2a9.356,9.356,0,0,0-1.589.2,4.518,4.518,0,0,0-1.385.5,19.027,19.027,0,0,1,.007,4.113,13.709,13.709,0,0,1-.555,2.988s.373.851,2.813,1.055c.274.021.534.035.773.035a5.228,5.228,0,0,0,2.559-.513,3.793,3.793,0,0,0,.3-1.554A12.444,12.444,0,0,0,20.447,15.012Z" fill="#9282ff"/><path d="M14.463,14.681C12.916,11.855,8.4,7.875,5.934,7.875,4.071,7.875,2.25,12.691,2.25,18S3.867,28.125,5.871,28.125c2.348,0,7.77-5.625,7.77-5.625a11.976,11.976,0,0,0,.7-2.362l.127-.731c.049-.33.091-.682.12-1.055q.032-.369.042-.7l.021-.689A10.97,10.97,0,0,0,14.463,14.681Z" fill="#9282ff"/><path d="M30.066,7.875c-2.559,0-6.778,3.973-8.318,6.806l-.056.1.134.239a7.741,7.741,0,0,1,.661,1.688l.2.823a13.834,13.834,0,0,1,.3,2.264l.014.633c0,.2-.007.4-.021.6a3.5,3.5,0,0,1-.323,1.554c.534.738,4.852,5.548,7.467,5.548,2,0,3.621-4.816,3.621-10.125S31.929,7.875,30.066,7.875Z" fill="#9282ff"/></g><path d="M34.313,18H5.625V7.875a2.249,2.249,0,0,1,4.149-1.2,4.779,4.779,0,0,0,.481,5.838.843.843,0,0,0,.035,1.155l.8.8a.844.844,0,0,0,1.193,0L18.96,7.779a.844.844,0,0,0,0-1.193l-.8-.8a.843.843,0,0,0-1.155-.035A4.771,4.771,0,0,0,12.5,4.675,5.623,5.623,0,0,0,2.25,7.875V18H1.688A1.687,1.687,0,0,0,0,19.688v1.125A1.687,1.687,0,0,0,1.688,22.5H2.25v2.25A6.733,6.733,0,0,0,4.5,29.781v2.282A1.687,1.687,0,0,0,6.188,33.75H7.313A1.687,1.687,0,0,0,9,32.063V31.5H27v.563a1.687,1.687,0,0,0,1.688,1.688h1.125A1.687,1.687,0,0,0,31.5,32.063V29.781a6.733,6.733,0,0,0,2.25-5.031V22.5h.563A1.687,1.687,0,0,0,36,20.813V19.688A1.687,1.687,0,0,0,34.313,18Z" transform="translate(163.767 310.5)" fill="#9282ff" opacity="0.52"/><path d="M34.313,18H5.625V7.875a2.249,2.249,0,0,1,4.149-1.2,4.779,4.779,0,0,0,.481,5.838.843.843,0,0,0,.035,1.155l.8.8a.844.844,0,0,0,1.193,0L18.96,7.779a.844.844,0,0,0,0-1.193l-.8-.8a.843.843,0,0,0-1.155-.035A4.771,4.771,0,0,0,12.5,4.675,5.623,5.623,0,0,0,2.25,7.875V18H1.688A1.687,1.687,0,0,0,0,19.688v1.125A1.687,1.687,0,0,0,1.688,22.5H2.25v2.25A6.733,6.733,0,0,0,4.5,29.781v2.282A1.687,1.687,0,0,0,6.188,33.75H7.313A1.687,1.687,0,0,0,9,32.063V31.5H27v.563a1.687,1.687,0,0,0,1.688,1.688h1.125A1.687,1.687,0,0,0,31.5,32.063V29.781a6.733,6.733,0,0,0,2.25-5.031V22.5h.563A1.687,1.687,0,0,0,36,20.813V19.688A1.687,1.687,0,0,0,34.313,18Z" transform="translate(163.767 481.5)" fill="#9282ff" opacity="0.52"/><path d="M34.313,18H5.625V7.875a2.249,2.249,0,0,1,4.149-1.2,4.779,4.779,0,0,0,.481,5.838.843.843,0,0,0,.035,1.155l.8.8a.844.844,0,0,0,1.193,0L18.96,7.779a.844.844,0,0,0,0-1.193l-.8-.8a.843.843,0,0,0-1.155-.035A4.771,4.771,0,0,0,12.5,4.675,5.623,5.623,0,0,0,2.25,7.875V18H1.688A1.687,1.687,0,0,0,0,19.688v1.125A1.687,1.687,0,0,0,1.688,22.5H2.25v2.25A6.733,6.733,0,0,0,4.5,29.781v2.282A1.687,1.687,0,0,0,6.188,33.75H7.313A1.687,1.687,0,0,0,9,32.063V31.5H27v.563a1.687,1.687,0,0,0,1.688,1.688h1.125A1.687,1.687,0,0,0,31.5,32.063V29.781a6.733,6.733,0,0,0,2.25-5.031V22.5h.563A1.687,1.687,0,0,0,36,20.813V19.688A1.687,1.687,0,0,0,34.313,18Z" transform="translate(264.64 687.55) rotate(161)" fill="#9282ff" opacity="0.52"/><g transform="translate(211.904 384.75)" opacity="0.52"><path d="M15.6,21.6a4.8,4.8,0,1,1-4.8-4.8A4.8,4.8,0,0,1,15.6,21.6Z" fill="#9282ff"/><path d="M25.2,27a3,3,0,1,1-3-3A3,3,0,0,1,25.2,27Z" fill="#9282ff"/><path d="M30,13.2A7.2,7.2,0,1,1,22.8,6,7.2,7.2,0,0,1,30,13.2Z" fill="#9282ff"/></g><g transform="translate(281.61 322.5)" opacity="0.52"><path d="M15.6,21.6a4.8,4.8,0,1,1-4.8-4.8A4.8,4.8,0,0,1,15.6,21.6Z" fill="#9282ff"/><path d="M25.2,27a3,3,0,1,1-3-3A3,3,0,0,1,25.2,27Z" fill="#9282ff"/><path d="M30,13.2A7.2,7.2,0,1,1,22.8,6,7.2,7.2,0,0,1,30,13.2Z" fill="#9282ff"/></g><g transform="translate(133.767 829.5)" opacity="0.52"><path d="M15.6,21.6a4.8,4.8,0,1,1-4.8-4.8A4.8,4.8,0,0,1,15.6,21.6Z" fill="#9282ff"/><path d="M25.2,27a3,3,0,1,1-3-3A3,3,0,0,1,25.2,27Z" fill="#9282ff"/><path d="M30,13.2A7.2,7.2,0,1,1,22.8,6,7.2,7.2,0,0,1,30,13.2Z" fill="#9282ff"/></g><g transform="translate(25.051 625.639)" opacity="0.52"><path d="M15.6,21.6a4.8,4.8,0,1,1-4.8-4.8A4.8,4.8,0,0,1,15.6,21.6Z" fill="#9282ff"/><path d="M25.2,27a3,3,0,1,1-3-3A3,3,0,0,1,25.2,27Z" fill="#9282ff"/><path d="M30,13.2A7.2,7.2,0,1,1,22.8,6,7.2,7.2,0,0,1,30,13.2Z" fill="#9282ff"/></g><g transform="translate(25.051 625.639)" opacity="0.52"><path d="M15.6,21.6a4.8,4.8,0,1,1-4.8-4.8A4.8,4.8,0,0,1,15.6,21.6Z" fill="#9282ff"/><path d="M25.2,27a3,3,0,1,1-3-3A3,3,0,0,1,25.2,27Z" fill="#9282ff"/><path d="M30,13.2A7.2,7.2,0,1,1,22.8,6,7.2,7.2,0,0,1,30,13.2Z" fill="#9282ff"/></g><g transform="translate(309.801 384.75)" opacity="0.52"><path d="M15.6,21.6a4.8,4.8,0,1,0-4.8,4.8A4.8,4.8,0,0,0,15.6,21.6Z" transform="translate(0 -7.2)" fill="#9282ff"/><path d="M25.2,27a3,3,0,1,0-3,3A3,3,0,0,0,25.2,27Z" transform="translate(0 -18)" fill="#9282ff"/><path d="M30,13.2a7.2,7.2,0,1,0-7.2,7.2A7.2,7.2,0,0,0,30,13.2Z" transform="translate(0 75.857)" fill="#9282ff"/></g><g transform="translate(339.257 259.75)" opacity="0.52"><path d="M15.6,21.6a4.8,4.8,0,1,1-4.8-4.8A4.8,4.8,0,0,1,15.6,21.6Z" fill="#9282ff"/><path d="M25.2,27a3,3,0,1,1-3-3A3,3,0,0,1,25.2,27Z" fill="#9282ff"/><path d="M30,13.2A7.2,7.2,0,1,1,22.8,6,7.2,7.2,0,0,1,30,13.2Z" fill="#9282ff"/></g><g transform="translate(163.767 586)" opacity="0.52"><path d="M15.6,21.6a4.8,4.8,0,1,1-4.8-4.8A4.8,4.8,0,0,1,15.6,21.6Z" fill="#9282ff"/><path d="M25.2,27a3,3,0,1,1-3-3A3,3,0,0,1,25.2,27Z" fill="#9282ff"/><path d="M30,13.2A7.2,7.2,0,1,1,22.8,6,7.2,7.2,0,0,1,30,13.2Z" fill="#9282ff"/></g><g transform="translate(309.801 531.75)" opacity="0.52"><path d="M15.6,21.6a4.8,4.8,0,1,1-4.8-4.8A4.8,4.8,0,0,1,15.6,21.6Z" fill="#9282ff"/><path d="M25.2,27a3,3,0,1,1-3-3A3,3,0,0,1,25.2,27Z" fill="#9282ff"/><path d="M30,13.2A7.2,7.2,0,1,1,22.8,6,7.2,7.2,0,0,1,30,13.2Z" fill="#9282ff"/></g><g transform="translate(110.202 687.582) rotate(161)" opacity="0.52"><path d="M15.6,21.6a4.8,4.8,0,1,1-4.8-4.8A4.8,4.8,0,0,1,15.6,21.6Z" fill="#9282ff"/><path d="M25.2,27a3,3,0,1,1-3-3A3,3,0,0,1,25.2,27Z" fill="#9282ff"/><path d="M30,13.2A7.2,7.2,0,1,1,22.8,6,7.2,7.2,0,0,1,30,13.2Z" fill="#9282ff"/></g><g transform="translate(214.904 277)" opacity="0.52"><path d="M10.5,14.25A3.75,3.75,0,1,1,6.75,10.5a3.75,3.75,0,0,1,3.75,3.75Z" fill="#9282ff"/><path d="M17.25,8.25A3.75,3.75,0,1,1,13.5,4.5a3.75,3.75,0,0,1,3.75,3.75Z" fill="#9282ff"/><path d="M26.25,8.25A3.75,3.75,0,1,1,22.5,4.5a3.75,3.75,0,0,1,3.75,3.75Z" fill="#9282ff"/><path d="M33,14.25a3.75,3.75,0,1,1-3.75-3.75A3.75,3.75,0,0,1,33,14.25Z" fill="#9282ff"/><path d="M26.01,22.29c-1.305-1.53-2.4-2.835-3.72-4.365a6.364,6.364,0,0,0-2.625-1.98,3.037,3.037,0,0,0-.5-.135A7.549,7.549,0,0,0,18,15.75a6.293,6.293,0,0,0-1.185.075,3.037,3.037,0,0,0-.5.135,6.462,6.462,0,0,0-2.625,1.98c-1.305,1.53-2.4,2.835-3.72,4.365-1.965,1.965-4.38,4.14-3.93,7.185A4.71,4.71,0,0,0,9.54,32.97c1.1.225,4.59-.66,8.31-.66h.27c3.72,0,7.215.87,8.31.66a4.732,4.732,0,0,0,3.495-3.48c.465-3.06-1.95-5.235-3.915-7.2Z" fill="#9282ff"/></g><g transform="translate(214.904 448)" opacity="0.52"><path d="M10.5,14.25A3.75,3.75,0,1,1,6.75,10.5a3.75,3.75,0,0,1,3.75,3.75Z" fill="#9282ff"/><path d="M17.25,8.25A3.75,3.75,0,1,1,13.5,4.5a3.75,3.75,0,0,1,3.75,3.75Z" fill="#9282ff"/><path d="M26.25,8.25A3.75,3.75,0,1,1,22.5,4.5a3.75,3.75,0,0,1,3.75,3.75Z" fill="#9282ff"/><path d="M33,14.25a3.75,3.75,0,1,1-3.75-3.75A3.75,3.75,0,0,1,33,14.25Z" fill="#9282ff"/><path d="M26.01,22.29c-1.305-1.53-2.4-2.835-3.72-4.365a6.364,6.364,0,0,0-2.625-1.98,3.037,3.037,0,0,0-.5-.135A7.549,7.549,0,0,0,18,15.75a6.293,6.293,0,0,0-1.185.075,3.037,3.037,0,0,0-.5.135,6.462,6.462,0,0,0-2.625,1.98c-1.305,1.53-2.4,2.835-3.72,4.365-1.965,1.965-4.38,4.14-3.93,7.185A4.71,4.71,0,0,0,9.54,32.97c1.1.225,4.59-.66,8.31-.66h.27c3.72,0,7.215.87,8.31.66a4.732,4.732,0,0,0,3.495-3.48c.465-3.06-1.95-5.235-3.915-7.2Z" fill="#9282ff"/></g><g transform="translate(227.194 735.874) rotate(161)" opacity="0.52"><path d="M10.5,14.25A3.75,3.75,0,1,1,6.75,10.5a3.75,3.75,0,0,1,3.75,3.75Z" fill="#9282ff"/><path d="M17.25,8.25A3.75,3.75,0,1,1,13.5,4.5a3.75,3.75,0,0,1,3.75,3.75Z" fill="#9282ff"/><path d="M26.25,8.25A3.75,3.75,0,1,1,22.5,4.5a3.75,3.75,0,0,1,3.75,3.75Z" fill="#9282ff"/><path d="M33,14.25a3.75,3.75,0,1,1-3.75-3.75A3.75,3.75,0,0,1,33,14.25Z" fill="#9282ff"/><path d="M26.01,22.29c-1.305-1.53-2.4-2.835-3.72-4.365a6.364,6.364,0,0,0-2.625-1.98,3.037,3.037,0,0,0-.5-.135A7.549,7.549,0,0,0,18,15.75a6.293,6.293,0,0,0-1.185.075,3.037,3.037,0,0,0-.5.135,6.462,6.462,0,0,0-2.625,1.98c-1.305,1.53-2.4,2.835-3.72,4.365-1.965,1.965-4.38,4.14-3.93,7.185A4.71,4.71,0,0,0,9.54,32.97c1.1.225,4.59-.66,8.31-.66h.27c3.72,0,7.215.87,8.31.66a4.732,4.732,0,0,0,3.495-3.48c.465-3.06-1.95-5.235-3.915-7.2Z" fill="#9282ff"/></g></g></g></svg>