<svg xmlns="http://www.w3.org/2000/svg" width="138" height="138" viewBox="0 0 138 138"><g fill="#ff974f" stroke="#707070" stroke-width="1"><circle cx="69" cy="69" r="69" stroke="none"/><circle cx="69" cy="69" r="68.5" fill="none"/></g><path d="M45.972,27.7A32.5,32.5,0,0,0,20.25,41.721V27.7c0-7.01-6.812-15.188-15.187-15.188C2.267,12.514,0,14.851,0,18.356,0,20.692,2.267,24.2,5.063,24.2s5.063,1.168,5.063,3.5V68.591c0,5.841,4.54,9.346,10.125,9.346H48.094c1.4,0,2.531,0,2.531-2.337V74.433c0-3.5-2.267-5.841-5.062-5.841H40.5L60.75,52.236V75.6c0,2.337,1.133,2.337,2.531,2.337h5.063c1.4,0,2.531,0,2.531-2.337V44.058H65.813C56.034,44.058,47.853,38.216,45.972,27.7Zm24.9-15.188H60.75L50.625,2V24.2c0,8.178,6.8,16.356,15.187,16.356S81,32.375,81,24.2V2ZM59.484,25.365A4.043,4.043,0,0,1,56.953,24.2c0-2.337,1.133-3.5,2.531-3.5s2.531,1.168,2.531,3.5A4.043,4.043,0,0,1,59.484,25.365Zm12.656,0A4.043,4.043,0,0,1,69.609,24.2c0-2.337,1.133-3.5,2.531-3.5s2.531,1.168,2.531,3.5A4.043,4.043,0,0,1,72.141,25.365Z" transform="translate(29 29)"/></svg>