<svg width="138" height="138" viewBox="0 0 138 138" fill="none" xmlns="http://www.w3.org/2000/svg">
<g id="icon_cat">
<g id="icon_dog">
<path id="Vector" d="M69 138C107.108 138 138 107.108 138 69C138 30.8924 107.108 0 69 0C30.8924 0 0 30.8924 0 69C0 107.108 30.8924 138 69 138Z" fill="#FF974F"/>
<path id="Vector_2" d="M69 137.5C106.832 137.5 137.5 106.832 137.5 69C137.5 31.1685 106.832 0.5 69 0.5C31.1685 0.5 0.5 31.1685 0.5 69C0.5 106.832 31.1685 137.5 69 137.5Z" stroke="#707070"/>
</g>
<path id="Icon awesome-cat" d="M74.972 56.7C69.8863 56.8604 64.9092 58.2127 60.4416 60.648C55.974 63.0833 52.1406 66.5335 49.25 70.721V56.7C49.25 49.69 42.438 41.512 34.063 41.512C31.267 41.514 29 43.851 29 47.356C29 49.692 31.267 53.2 34.063 53.2C36.859 53.2 39.126 54.368 39.126 56.7V97.591C39.126 103.432 43.666 106.937 49.251 106.937H77.094C78.494 106.937 79.625 106.937 79.625 104.6V103.433C79.625 99.933 77.358 97.592 74.563 97.592H69.5L89.75 81.236V104.6C89.75 106.937 90.883 106.937 92.281 106.937H97.344C98.744 106.937 99.875 106.937 99.875 104.6V73.058H94.813C85.034 73.058 76.853 67.216 74.972 56.7ZM99.872 41.512H89.75L79.625 31V53.2C79.625 61.378 86.425 69.556 94.812 69.556C103.199 69.556 110 61.375 110 53.2V31L99.872 41.512ZM88.484 54.365C87.5289 54.2888 86.632 53.876 85.953 53.2C85.953 50.863 87.086 49.7 88.484 49.7C89.882 49.7 91.015 50.868 91.015 53.2C90.336 53.876 89.4391 54.2888 88.484 54.365ZM101.14 54.365C100.185 54.2888 99.288 53.876 98.609 53.2C98.609 50.863 99.742 49.7 101.14 49.7C102.538 49.7 103.671 50.868 103.671 53.2C102.992 53.8757 102.096 54.2886 101.141 54.365H101.14Z" fill="black"/>
</g>
</svg>
