<?xml version="1.0" encoding="UTF-8" standalone="no"?>
<!-- Created with Inkscape (http://www.inkscape.org/) -->

<svg
   width="83"
   height="83"
   viewBox="0 0 21.960417 21.960416"
   version="1.1"
   id="svg5"
   inkscape:version="1.1 (ce6663b3b7, 2021-05-25)"
   sodipodi:docname="icon-person.svg"
   xmlns:inkscape="http://www.inkscape.org/namespaces/inkscape"
   xmlns:sodipodi="http://sodipodi.sourceforge.net/DTD/sodipodi-0.dtd"
   xmlns="http://www.w3.org/2000/svg"
   xmlns:svg="http://www.w3.org/2000/svg">
  <sodipodi:namedview
     id="namedview7"
     pagecolor="#ffffff"
     bordercolor="#666666"
     borderopacity="1.0"
     inkscape:pageshadow="2"
     inkscape:pageopacity="0.0"
     inkscape:pagecheckerboard="0"
     inkscape:document-units="px"
     showgrid="false"
     width="83px"
     inkscape:zoom="0.83125"
     inkscape:cx="179.84962"
     inkscape:cy="400.6015"
     inkscape:window-width="1366"
     inkscape:window-height="731"
     inkscape:window-x="1368"
     inkscape:window-y="0"
     inkscape:window-maximized="1"
     inkscape:current-layer="layer1" />
  <defs
     id="defs2" />
  <g
     inkscape:label="Camada 1"
     inkscape:groupmode="layer"
     id="layer1">
    <g
       transform="matrix(0.26458333,0,0,0.26458333,-6.4464833,49.83815)"
       id="g17">
      <g
         transform="translate(37,36)"
         fill="#ff974f"
         stroke="#707070"
         stroke-width="1"
         id="g13">
        <circle
           cx="41.5"
           cy="41.5"
           r="41.5"
           stroke="none"
           id="circle9" />
        <circle
           cx="41.5"
           cy="41.5"
           r="41"
           fill="none"
           id="circle11" />
      </g>
      <path
         d="M 18,20.25 A 10.125,10.125 0 1 0 7.875,10.125 10.128,10.128 0 0 0 18,20.25 Z m 9,2.25 h -3.874 a 12.24,12.24 0 0 1 -10.252,0 H 9 a 9,9 0 0 0 -9,9 v 1.125 A 3.376,3.376 0 0 0 3.375,36 h 29.25 A 3.376,3.376 0 0 0 36,32.625 V 31.5 a 9,9 0 0 0 -9,-9 z"
         transform="translate(61,60)"
         id="path15" />
    </g>
  </g>
</svg>
