<svg width="83" height="83" viewBox="0 0 83 83" fill="none" xmlns="http://www.w3.org/2000/svg">
<g id="Grupo 27">
<g id="Elipse 6">
<path id="Vector" d="M41.5 83C64.4198 83 83 64.4198 83 41.5C83 18.5802 64.4198 0 41.5 0C18.5802 0 0 18.5802 0 41.5C0 64.4198 18.5802 83 41.5 83Z" fill="#FF974F"/>
<path id="Vector_2" d="M41.5 82.5C64.1437 82.5 82.5 64.1437 82.5 41.5C82.5 18.8563 64.1437 0.5 41.5 0.5C18.8563 0.5 0.5 18.8563 0.5 41.5C0.5 64.1437 18.8563 82.5 41.5 82.5Z" stroke="#707070"/>
</g>
<path id="Icon awesome-user-alt" d="M42 44.25C44.0025 44.25 45.9601 43.6562 47.6251 42.5436C49.2902 41.4311 50.5879 39.8498 51.3543 37.9997C52.1206 36.1496 52.3211 34.1138 51.9305 32.1497C51.5398 30.1857 50.5755 28.3816 49.1595 26.9655C47.7435 25.5495 45.9393 24.5852 43.9753 24.1946C42.0112 23.8039 39.9754 24.0044 38.1253 24.7707C36.2752 25.5371 34.6939 26.8348 33.5814 28.4999C32.4688 30.1649 31.875 32.1225 31.875 34.125C31.8758 36.8101 32.9428 39.3849 34.8414 41.2836C36.7401 43.1822 39.3149 44.2492 42 44.25ZM51 46.5H47.126C45.5188 47.2412 43.7699 47.6251 42 47.6251C40.2301 47.6251 38.4812 47.2412 36.874 46.5H33C30.6131 46.5 28.3239 47.4482 26.636 49.136C24.9482 50.8239 24 53.1131 24 55.5V56.625C24.0003 57.52 24.3559 58.3783 24.9888 59.0112C25.6217 59.6441 26.48 59.9997 27.375 60H56.625C57.52 59.9997 58.3783 59.6441 59.0112 59.0112C59.6441 58.3783 59.9997 57.52 60 56.625V55.5C60 53.1131 59.0518 50.8239 57.364 49.136C55.6761 47.4482 53.3869 46.5 51 46.5Z" fill="black"/>
</g>
</svg>
