<svg xmlns="http://www.w3.org/2000/svg" width="159" height="159" viewBox="0 0 159 159">
  <g id="icon_dog" transform="translate(-126 -116)">
    <g id="icon_dog-2" data-name="icon_dog" transform="translate(126 116)" fill="#ff974f" stroke="#707070" stroke-width="1">
      <circle cx="79.5" cy="79.5" r="79.5" stroke="none"/>
      <circle cx="79.5" cy="79.5" r="79" fill="none"/>
    </g>
    <path id="Icon_awesome-dog" data-name="Icon awesome-dog" d="M93.041,14.255H81.036l-1.343-2.684a6,6,0,0,0-5.369-3.318H64.266L59.149,3.135a3,3,0,0,0-5.125,2.122V33.364l24.011,8.574V35.264h6A12,12,0,0,0,96.043,23.259v-6A3,3,0,0,0,93.041,14.255Zm-21.009,9a3,3,0,1,1,3-3A3,3,0,0,1,72.032,23.259ZM18.008,38.266a6.011,6.011,0,0,1-6-6A6,6,0,0,0,0,32.263a17.977,17.977,0,0,0,12.005,16.9V89.288a3,3,0,0,0,3,3H27.012a3,3,0,0,0,3-3V68.279H60.027V89.288a3,3,0,0,0,3,3H75.033a3,3,0,0,0,3-3V48.311L49.907,38.266Z" transform="translate(157 147.75)"/>
  </g>
</svg>
