<svg width="138" height="138" viewBox="0 0 138 138" fill="none" xmlns="http://www.w3.org/2000/svg">
<g id="icon_photo_add">
<g id="Elipse 5">
<path id="Vector" d="M69 138C107.108 138 138 107.108 138 69C138 30.8924 107.108 0 69 0C30.8924 0 0 30.8924 0 69C0 107.108 30.8924 138 69 138Z" fill="#FF974F"/>
<path id="Vector_2" d="M69 137.5C106.832 137.5 137.5 106.832 137.5 69C137.5 31.1685 106.832 0.5 69 0.5C31.1685 0.5 0.5 31.1685 0.5 69C0.5 106.832 31.1685 137.5 69 137.5Z" stroke="#707070"/>
</g>
<path id="Icon material-add-a-photo" d="M47.511 50.511V43H52.518V50.511H60.029V55.518H52.518V63.029H47.511V55.518H40V50.511H47.511ZM55.022 65.533V58.022H62.533V50.511H80.059L84.641 55.518H92.578C93.9047 55.522 95.176 56.0507 96.1141 56.9889C97.0522 57.927 97.581 59.1983 97.585 60.525V90.57C97.581 91.8967 97.0522 93.168 96.1141 94.1061C95.176 95.0443 93.9047 95.573 92.578 95.577H52.518C51.1913 95.573 49.92 95.0443 48.9819 94.1061C48.0437 93.168 47.515 91.8967 47.511 90.57V65.533H55.022ZM72.548 88.066C75.0238 88.0658 77.4439 87.3315 79.5024 85.9558C81.5608 84.5802 83.1651 82.6251 84.1124 80.3377C85.0597 78.0504 85.3075 75.5334 84.8243 73.1052C84.3412 70.6771 83.1489 68.4467 81.3982 66.6961C79.6475 64.9455 77.417 63.7534 74.9888 63.2705C72.5605 62.7875 70.0436 63.0355 67.7563 63.983C65.469 64.9305 63.514 66.5349 62.1386 68.5935C60.7631 70.652 60.029 73.0722 60.029 75.548C60.0303 78.8677 61.3497 82.0511 63.6973 84.3985C66.0448 86.7458 69.2283 88.0649 72.548 88.066ZM64.536 75.548C64.536 77.1326 65.0059 78.6817 65.8863 79.9992C66.7666 81.3168 68.0179 82.3437 69.4819 82.9501C70.9459 83.5565 72.5569 83.7152 74.1111 83.4061C75.6652 83.0969 77.0928 82.3338 78.2133 81.2133C79.3338 80.0928 80.0969 78.6652 80.4061 77.1111C80.7152 75.5569 80.5565 73.9459 79.9501 72.4819C79.3437 71.0179 78.3168 69.7666 76.9992 68.8863C75.6817 68.0059 74.1326 67.536 72.548 67.536C71.4954 67.5344 70.4528 67.7406 69.4801 68.1427C68.5073 68.5447 67.6234 69.1348 66.8791 69.8791C66.1348 70.6234 65.5447 71.5073 65.1427 72.4801C64.7406 73.4528 64.5344 74.4954 64.536 75.548Z" fill="black"/>
</g>
</svg>
