<svg xmlns="http://www.w3.org/2000/svg" width="138" height="138" viewBox="0 0 138 138"><g transform="translate(-126 -116)"><g transform="translate(126 116)"><g fill="#ff974f" stroke="#707070" stroke-width="1"><circle cx="69" cy="69" r="69" stroke="none"/><circle cx="69" cy="69" r="68.5" fill="none"/></g><path d="M81.675,12.789H71.136l-1.179-2.356a5.269,5.269,0,0,0-4.713-2.913H56.415L51.923,3.027a2.635,2.635,0,0,0-4.5,1.862V29.563L68.5,37.09V31.231h5.269A10.538,10.538,0,0,0,84.309,20.693V15.423A2.634,2.634,0,0,0,81.675,12.789Zm-18.443,7.9a2.635,2.635,0,1,1,2.635-2.635A2.634,2.634,0,0,1,63.232,20.693ZM15.808,33.866A5.276,5.276,0,0,1,10.539,28.6,5.269,5.269,0,0,0,0,28.6,15.781,15.781,0,0,0,10.539,43.433V78.655a2.634,2.634,0,0,0,2.635,2.635H23.712a2.634,2.634,0,0,0,2.635-2.635V60.212H52.693V78.655a2.634,2.634,0,0,0,2.635,2.635H65.867A2.634,2.634,0,0,0,68.5,78.655V42.684L43.81,33.866Z" transform="translate(27 26.75)"/></g></g></svg>