<svg width="138" height="138" viewBox="0 0 138 138" fill="none" xmlns="http://www.w3.org/2000/svg">
<g id="icon_dog">
<g id="Componente 26 &#226;&#128;&#147; 1">
<g id="icon_dog_2">
<path id="Vector" d="M69 138C107.108 138 138 107.108 138 69C138 30.8924 107.108 0 69 0C30.8924 0 0 30.8924 0 69C0 107.108 30.8924 138 69 138Z" fill="#FF974F"/>
<path id="Vector_2" d="M69 137.5C106.832 137.5 137.5 106.832 137.5 69C137.5 31.1685 106.832 0.5 69 0.5C31.1685 0.5 0.5 31.1685 0.5 69C0.5 106.832 31.1685 137.5 69 137.5Z" stroke="#707070"/>
</g>
<path id="Icon awesome-dog" d="M108.675 39.539H98.136L96.957 37.183C96.5194 36.3077 95.8467 35.5715 95.0143 35.057C94.1819 34.5425 93.2226 34.27 92.244 34.27H83.415L78.923 29.777C78.5547 29.408 78.0851 29.1565 77.5738 29.0545C77.0624 28.9524 76.5323 29.0043 76.0505 29.2037C75.5687 29.403 75.1569 29.7409 74.8672 30.1744C74.5775 30.6079 74.4229 31.1176 74.423 31.639V56.313L95.5 63.84V57.981H100.769C102.153 57.9813 103.524 57.7089 104.802 57.1794C106.081 56.65 107.243 55.8738 108.222 54.8952C109.201 53.9167 109.977 52.7549 110.507 51.4762C111.036 50.1975 111.309 48.8271 111.309 47.443V42.173C111.309 41.8271 111.241 41.4846 111.108 41.165C110.976 40.8455 110.782 40.5551 110.538 40.3105C110.293 40.0659 110.003 39.8719 109.683 39.7395C109.363 39.6072 109.021 39.539 108.675 39.539ZM90.232 47.439C89.7108 47.439 89.2014 47.2845 88.7681 46.995C88.3348 46.7054 87.997 46.2939 87.7976 45.8124C87.5981 45.3309 87.546 44.8011 87.6476 44.29C87.7493 43.7788 88.0003 43.3093 88.3688 42.9408C88.7373 42.5723 89.2068 42.3213 89.7179 42.2197C90.2291 42.118 90.7589 42.1702 91.2404 42.3696C91.7219 42.569 92.1334 42.9068 92.4229 43.3401C92.7125 43.7734 92.867 44.2829 92.867 44.804C92.8677 45.1504 92.8 45.4936 92.6678 45.8138C92.5357 46.134 92.3417 46.425 92.0969 46.6701C91.8522 46.9153 91.5615 47.1097 91.2415 47.2423C90.9214 47.375 90.5784 47.4432 90.232 47.443V47.439ZM42.808 60.616C41.4117 60.6142 40.073 60.0589 39.0854 59.0718C38.0977 58.0847 37.5416 56.7464 37.539 55.35C37.539 53.9525 36.9838 52.6122 35.9956 51.6239C35.0074 50.6357 33.6671 50.0805 32.2695 50.0805C30.8719 50.0805 29.5316 50.6357 28.5434 51.6239C27.5552 52.6122 27 53.9525 27 55.35C27.0107 58.6079 28.0295 61.7826 29.9165 64.4384C31.8034 67.0942 34.4661 69.1009 37.539 70.183V105.405C37.5389 105.751 37.6069 106.094 37.7393 106.414C37.8717 106.733 38.0658 107.024 38.3105 107.269C38.5552 107.513 38.8457 107.707 39.1655 107.84C39.4852 107.972 39.8279 108.04 40.174 108.04H50.712C51.0581 108.04 51.4008 107.972 51.7205 107.84C52.0403 107.707 52.3308 107.513 52.5755 107.269C52.8202 107.024 53.0143 106.733 53.1467 106.414C53.2791 106.094 53.3471 105.751 53.347 105.405V86.962H79.693V105.405C79.6929 105.751 79.7609 106.094 79.8933 106.414C80.0257 106.733 80.2198 107.024 80.4645 107.269C80.7092 107.513 80.9997 107.707 81.3195 107.84C81.6392 107.972 81.9819 108.04 82.328 108.04H92.867C93.2129 108.04 93.5554 107.972 93.8749 107.839C94.1944 107.707 94.4847 107.513 94.7292 107.268C94.9737 107.023 95.1676 106.733 95.2999 106.413C95.4321 106.093 95.5001 105.751 95.5 105.405V69.434L70.81 60.616H42.808Z" fill="black"/>
</g>
</g>
</svg>
