<?xml version="1.0" encoding="UTF-8" standalone="no"?>
<!-- Created with Inkscape (http://www.inkscape.org/) -->

<svg
   version="1.1"
   id="svg2"
   width="221.414"
   height="222.85699"
   viewBox="0 0 221.414 222.857"
   sodipodi:docname="icon_log.svg"
   inkscape:version="1.1 (ce6663b3b7, 2021-05-25)"
   xmlns:inkscape="http://www.inkscape.org/namespaces/inkscape"
   xmlns:sodipodi="http://sodipodi.sourceforge.net/DTD/sodipodi-0.dtd"
   xmlns="http://www.w3.org/2000/svg"
   xmlns:svg="http://www.w3.org/2000/svg">
  <defs
     id="defs6" />
  <sodipodi:namedview
     id="namedview4"
     pagecolor="#ffffff"
     bordercolor="#666666"
     borderopacity="1.0"
     inkscape:pageshadow="2"
     inkscape:pageopacity="0.0"
     inkscape:pagecheckerboard="0"
     showgrid="false"
     showguides="true"
     inkscape:guide-bbox="true"
     width="221.414px"
     inkscape:zoom="1.834101"
     inkscape:cx="169.83798"
     inkscape:cy="140.66837"
     inkscape:window-width="1368"
     inkscape:window-height="731"
     inkscape:window-x="0"
     inkscape:window-y="0"
     inkscape:window-maximized="1"
     inkscape:current-layer="g8" />
  <g
     inkscape:groupmode="layer"
     inkscape:label="Image"
     id="g8">
    <g
       id="g45596"
       transform="translate(-9.9596558,-9.2381592)">
      <ellipse
         style="fill:#000000;fill-rule:evenodd;stroke-width:1.31186"
         id="path252"
         cx="120.66666"
         cy="120.66666"
         rx="110.70715"
         ry="111.42844" />
      <path
         style="fill:#c1df65;fill-opacity:1;stroke:none;stroke-width:1.33333"
         d="M 213.33333,158.66666 H 212 L 208,129.33333 193.33333,140 c 2.74533,-5.21867 5.77867,-10.2672 7.34667,-16 1.18933,-4.34973 1.84666,-8.8824 2.53333,-13.33333 C 207.82,80.799999 164.53466,89.808132 146.66666,80.435199 134.044,73.813866 125.8704,61.950532 112,56.622399 74.782532,42.326133 39.641466,69.571332 22.666666,101.33333 19.52,93.251999 26.0512,81.893599 29.664666,74.666666 41.238133,51.519599 61.601999,32.041333 86.666665,24.066933 145.17333,5.4526799 208.308,41.657599 219.38266,102.66667 c 3.59067,19.78333 0.0853,37.14133 -6.04933,55.99999"
         id="path605" />
      <g
         id="g45570">
        <path
           style="fill:#c1df65;fill-opacity:1;stroke:none;stroke-width:1.33333"
           d="m 186.66666,95.999999 c -4.044,9.840931 -6.708,17.569071 6.66667,20.000001 C 187.26,147.21066 151.96533,162.85333 124,146.028 102.8884,133.3264 90.733065,106.71067 90.666665,82.666666 H 89.333332 C 84.099599,102.89613 91.299465,121.82146 100.33027,140 c 4.69693,9.45466 14.63266,22.216 8.7644,33.276 C 96.858532,196.33733 65.604532,171.84933 57.420799,158.66666 39.831333,130.33306 48.868266,98.791999 70.666666,75.999999 46.090133,90.245332 33.784266,128.0116 42.328133,154.66666 c 10.468933,32.66 44.493732,48.216 73.671867,30.66667 7.95093,12.056 13.0956,26.97333 28,32 -11.72907,8.15067 -33.5908,3.832 -46.666668,1.052 -36.2356,-7.70267 -74.751732,-41.75867 -77.048399,-81.052 -0.553467,-9.46973 5.8164,-19.90053 10.0896,-28 13.711333,-25.988931 36.974266,-52.903864 69.625466,-47.566931 19.035071,3.111467 25.548661,19.1016 41.333331,26.996933 14.168,7.0868 30.70267,2.284133 45.33333,7.236667"
           id="path615" />
        <g
           id="g45546">
          <path
             style="fill:#000000;stroke:none;stroke-width:1.33333"
             d="m 114.80973,87.676932 c -10.39986,4.1056 -6.96413,26.029338 5.1656,22.126538 11.2932,-3.6336 7.5988,-27.165604 -5.1656,-22.126538"
             id="path633" />
          <ellipse
             style="fill:#ffffff;fill-opacity:1;stroke:none;stroke-width:0.6;stroke-miterlimit:4;stroke-dasharray:none"
             id="path45018"
             cx="120.88612"
             cy="94.169853"
             rx="2.0979013"
             ry="3.3944757" />
        </g>
      </g>
      <g
         id="g45564">
        <path
           style="fill:#c1df65;fill-opacity:1;stroke:none;stroke-width:1.33333"
           d="M 201.33333,145.33333 C 213.82,178.67733 180.824,232.83466 142.66666,210.196 120.82,197.236 124.5216,175.50133 118.66667,154.66666 c 31.73066,10.02 53.59333,8.592 82.66666,-9.33333"
           id="path659" />
        <g
           id="g44398"
           transform="translate(346.33368,9.82958)">
          <path
             style="fill:#000000;stroke:#000000;stroke-width:0.1;stroke-linecap:butt;stroke-linejoin:miter;stroke-miterlimit:4;stroke-dasharray:none;stroke-opacity:1"
             d="m -193.69476,179.19943 c 0,0 3.80401,5.25398 8.94461,0.19013 0.12228,-2.54686 0.12228,-2.56587 0.12228,-2.56587 l -1.48051,-1.19269 h 4.63881 l -1.6054,1.19269 -0.0818,2.59249 c 3.72927,3.26723 6.13067,2.69073 8.1924,-0.0421 0,0 -0.11286,2.13116 -1.027,2.96089 -0.91413,0.82973 -2.72274,1.44247 -4.1537,1.00389 -1.326,-0.40641 -3.26367,-2.58058 -3.26367,-2.58058 -0.61795,-0.4441 -0.60915,-0.34356 -1.29627,0.0236 0,0 -2.25506,2.54479 -4.79822,2.75037 -2.6192,-0.0765 -4.37449,-1.90997 -4.19157,-4.33275 z"
             id="path33815"
             sodipodi:nodetypes="cccccccczscccc" />
          <path
             style="fill:none;stroke:#000000;stroke-width:0.6;stroke-linecap:butt;stroke-linejoin:miter;stroke-miterlimit:4;stroke-dasharray:none;stroke-opacity:1"
             d="m -212.2384,179.36625 c 4.83684,-1.26605 10.77729,-1.26831 14.11595,-0.82363"
             id="path42851"
             sodipodi:nodetypes="cc" />
          <path
             style="fill:none;stroke:#000000;stroke-width:0.519951;stroke-linecap:butt;stroke-linejoin:miter;stroke-miterlimit:4;stroke-dasharray:none;stroke-opacity:1"
             d="m -210.11573,185.15553 c 3.70579,-2.32105 8.69426,-3.92359 11.62343,-4.46578"
             id="path44263"
             sodipodi:nodetypes="cc" />
          <path
             style="fill:none;stroke:#000000;stroke-width:0.573931;stroke-linecap:butt;stroke-linejoin:miter;stroke-miterlimit:4;stroke-dasharray:none;stroke-opacity:1"
             d="m -205.95158,192.13524 c 3.00859,-3.7993 7.58103,-7.28942 10.40282,-8.91317"
             id="path44383"
             sodipodi:nodetypes="cc" />
          <path
             style="fill:none;stroke:#000000;stroke-width:0.573931;stroke-linecap:butt;stroke-linejoin:miter;stroke-miterlimit:4;stroke-dasharray:none;stroke-opacity:1"
             d="m -171.66702,183.50375 c 4.26618,2.29913 8.50094,6.19207 10.59237,8.68706"
             id="path44385"
             sodipodi:nodetypes="cc" />
          <path
             style="fill:none;stroke:#000000;stroke-width:0.480392;stroke-linecap:butt;stroke-linejoin:miter;stroke-miterlimit:4;stroke-dasharray:none;stroke-opacity:1"
             d="m -168.68288,180.96485 c 4.44629,0.87998 9.23179,2.90988 11.72738,4.32331"
             id="path44387"
             sodipodi:nodetypes="cc" />
          <path
             style="fill:none;stroke:#000000;stroke-width:0.630874;stroke-linecap:butt;stroke-linejoin:miter;stroke-miterlimit:4;stroke-dasharray:none;stroke-opacity:1"
             d="m -167.49842,178.14984 c 5.05952,-0.14226 10.76379,1.33832 13.82333,2.64586"
             id="path44389"
             sodipodi:nodetypes="cc" />
        </g>
        <g
           id="g45542">
          <g
             id="g45530">
            <path
               style="fill:#000000;stroke:none;stroke-width:1.33333"
               d="m 171.476,172.05733 c -4.74134,3.65333 1.78,11.47867 6.38133,7.11733 4.49333,-4.25866 -1.78667,-10.656 -6.38133,-7.11733"
               id="path679" />
            <circle
               style="fill:#ffffff;fill-opacity:1;stroke:none;stroke-width:0.367754;stroke-miterlimit:4;stroke-dasharray:none"
               id="path45162"
               cx="175.97621"
               cy="173.65546"
               r="1.2665" />
          </g>
          <g
             id="g45534">
            <path
               style="fill:#000000;stroke:none;stroke-width:1.33333"
               d="m 145.50533,170.52 c -5.87333,1.66533 -3.736,11.42666 2.32267,9.81066 5.87066,-1.56533 3.84666,-11.55733 -2.32267,-9.81066"
               id="path677" />
            <circle
               style="fill:#ffffff;fill-opacity:1;stroke:none;stroke-width:0.367754;stroke-miterlimit:4;stroke-dasharray:none"
               id="circle45288"
               cx="148.65927"
               cy="173.34904"
               r="1.2665" />
          </g>
        </g>
      </g>
    </g>
  </g>
</svg>
