<svg xmlns="http://www.w3.org/2000/svg" width="159" height="159" viewBox="0 0 159 159">
  <g id="icon_cat" transform="translate(368 -463)">
    <g id="icon_dog" transform="translate(-368 463)" fill="#ff974f" stroke="#707070" stroke-width="1">
      <circle cx="79.5" cy="79.5" r="79.5" stroke="none"/>
      <circle cx="79.5" cy="79.5" r="79" fill="none"/>
    </g>
    <path id="Icon_awesome-cat" data-name="Icon awesome-cat" d="M57.069,33.672c-3.963,0-20.978.389-31.931,16.88V33.672A18.873,18.873,0,0,0,6.284,14.819a6.284,6.284,0,1,0,0,12.569,6.293,6.293,0,0,1,6.284,6.284V83.948A12.581,12.581,0,0,0,25.138,96.517H59.7a3.141,3.141,0,0,0,3.142-3.142V90.233a6.285,6.285,0,0,0-6.284-6.284H50.276L75.414,65.095v28.28a3.141,3.141,0,0,0,3.142,3.142h6.284a3.141,3.141,0,0,0,3.142-3.142V52.891a24.887,24.887,0,0,1-6.284.892A25.179,25.179,0,0,1,57.069,33.672ZM87.983,14.819H75.414L62.845,2.25V28.645a18.853,18.853,0,1,0,37.707,0V2.25ZM73.843,30.53a3.142,3.142,0,1,1,3.142-3.142A3.141,3.141,0,0,1,73.843,30.53Zm15.711,0A3.142,3.142,0,1,1,92.7,27.388,3.141,3.141,0,0,1,89.554,30.53Z" transform="translate(-339 492.75)"/>
  </g>
</svg>
