<svg xmlns="http://www.w3.org/2000/svg" width="138" height="138" viewBox="0 0 138 138"><g fill="#ff974f" stroke="#707070" stroke-width="1"><circle cx="69" cy="69" r="69" stroke="none"/><circle cx="69" cy="69" r="68.5" fill="none"/></g><path d="M7.511,9.011V1.5h5.007V9.011h7.511v5.007H12.518v7.511H7.511V14.018H0V9.011Zm7.511,15.022V16.522h7.511V9.011H40.059l4.582,5.007h7.937a5.022,5.022,0,0,1,5.007,5.007V49.07a5.022,5.022,0,0,1-5.007,5.007H12.518A5.022,5.022,0,0,1,7.511,49.07V24.033ZM32.548,46.566A12.518,12.518,0,1,0,20.029,34.048,12.523,12.523,0,0,0,32.548,46.566ZM24.536,34.048a8.012,8.012,0,1,0,8.012-8.012A8,8,0,0,0,24.536,34.048Z" transform="translate(40 41.5)"/></svg>